<svg width="24" height="24" viewBox="0 0 24 24" fill="none" xmlns="http://www.w3.org/2000/svg">
<path d="M3.46799 2.39999H20.544C21.132 2.39999 21.6 2.86799 21.6 3.45599V20.544C21.6 21.12 21.132 21.6 20.544 21.6H15.648V14.16H18.144L18.516 11.268H15.648V9.41999C15.648 8.57999 15.888 8.00399 17.088 8.00399H18.624V5.41199C18.36 5.37599 17.448 5.30399 16.392 5.30399C14.172 5.30399 12.66 6.64799 12.66 9.13199V11.268H10.152V14.16H12.66V21.6H3.46799C3.18681 21.6 2.91696 21.4891 2.71701 21.2914C2.51707 21.0937 2.40315 20.8252 2.39999 20.544V3.45599C2.39999 2.86799 2.87999 2.39999 3.46799 2.39999Z" fill="black"/>
</svg>
